<?xml version="1.0" standalone="no"?>
<!DOCTYPE svg PUBLIC "-//W3C//DTD SVG 20010904//EN"
 "http://www.w3.org/TR/2001/REC-SVG-20010904/DTD/svg10.dtd">
<svg version="1.0" xmlns="http://www.w3.org/2000/svg"
 width="226.000000pt" height="231.000000pt" viewBox="0 0 226.000000 231.000000"
 preserveAspectRatio="xMidYMid meet">
<g transform="translate(0.000000,231.000000) scale(0.100000,-0.100000)"
fill="#1c71d8" stroke="none">
<path d="M425 2241 c-70 -20 -145 -57 -145 -71 0 -6 5 -10 11 -10 8 0 8 -5 -1
-15 -7 -8 -17 -12 -22 -9 -6 4 -6 9 2 14 7 4 8 10 3 13 -14 9 -85 -52 -77 -65
5 -7 2 -8 -5 -4 -8 5 -14 0 -18 -13 -3 -11 -9 -18 -14 -15 -12 7 -78 -98 -101
-161 -10 -27 -23 -93 -28 -145 -12 -106 -13 -1220 -2 -1220 4 0 8 -28 8 -63 2
-66 34 -161 74 -217 19 -27 24 -29 38 -18 15 12 16 11 3 -5 -13 -16 -10 -22
25 -58 56 -58 131 -107 210 -137 l69 -26 606 -4 c656 -4 746 1 850 43 130 53
250 178 299 312 l25 68 0 700 c0 778 3 741 -68 860 -39 64 -118 147 -135 140
-7 -2 -10 -1 -7 5 8 13 -41 43 -56 34 -8 -4 -9 -3 -5 5 10 15 -82 57 -154 71
-32 6 -300 10 -689 9 -574 0 -642 -2 -696 -18z m292 3 c-3 -3 -12 -4 -19 -1
-8 3 -5 6 6 6 11 1 17 -2 13 -5z m-253 -19 c-4 -8 -15 -16 -25 -16 -10 -1 -23
-3 -29 -4 -5 -1 -15 -3 -21 -4 -8 -1 -9 -5 0 -14 11 -14 5 -27 -12 -27 -5 0
-7 7 -3 15 3 10 -1 15 -12 16 -12 0 78 42 105 48 1 1 0 -6 -3 -14z m155 1 c7
-8 8 -16 4 -19 -10 -6 -99 -20 -134 -21 -15 -1 -36 -10 -48 -20 -12 -11 -24
-16 -28 -13 -3 4 -1 7 6 7 6 0 11 8 9 18 -2 13 5 18 35 20 23 2 37 8 37 17 0
23 101 32 119 11z m644 7 c-13 -2 -33 -2 -45 0 -13 2 -3 4 22 4 25 0 35 -2 23
-4z m454 -13 c-26 -3 -64 -4 -85 -1 l-37 5 40 6 c22 3 60 3 85 1 l45 -5 -48
-6z m-1060 3 c-4 -3 -10 -3 -14 0 -3 4 0 7 7 7 7 0 10 -3 7 -7z m206 0 c-7 -2
-19 -2 -25 0 -7 3 -2 5 12 5 14 0 19 -2 13 -5z m114 0 c-4 -3 -10 -3 -14 0 -3
4 0 7 7 7 7 0 10 -3 7 -7z m913 -29 c0 -8 -4 -14 -9 -14 -6 0 -9 9 -8 19 1 22
17 18 17 -5z m-1563 -18 c0 -8 -6 -12 -15 -9 -11 5 -11 7 0 14 7 5 13 9 14 9
0 0 1 -6 1 -14z m343 4 c12 -8 11 -10 -7 -10 -13 0 -23 5 -23 10 0 13 11 13
30 0z m273 -7 c-24 -2 -62 -2 -85 0 -24 2 -5 4 42 4 47 0 66 -2 43 -4z m-586
-10 c-4 -3 -10 -3 -14 0 -3 4 0 7 7 7 7 0 10 -3 7 -7z m138 -11 c-3 -3 -11 0
-18 7 -9 10 -8 11 6 5 10 -3 15 -9 12 -12z m1490 8 c-3 -5 2 -10 11 -10 10 0
15 -3 11 -6 -3 -3 -15 -3 -28 1 -17 6 -19 9 -8 16 18 11 22 11 14 -1z m-1348
-6 c-3 -3 -12 -4 -19 -1 -8 3 -5 6 6 6 11 1 17 -2 13 -5z m-396 -47 c-5 -5 -8
-15 -7 -21 2 -6 1 -8 -1 -3 -3 4 -9 5 -14 1 -5 -3 -9 2 -9 10 0 9 5 16 11 16
5 0 7 4 4 10 -3 6 1 7 10 4 11 -5 13 -10 6 -17z m1824 -7 c10 -11 16 -20 13
-20 -3 0 -13 9 -23 20 -10 11 -16 20 -13 20 3 0 13 -9 23 -20z m-36 -13 c0 -9
-2 -8 -6 1 -2 6 -10 9 -15 6 -7 -4 -8 -2 -4 5 9 13 26 5 25 -12z m-92 -14 c-4
-3 -10 -3 -14 0 -3 4 0 7 7 7 7 0 10 -3 7 -7z m-1647 -7 c0 -3 -4 -8 -10 -11
-5 -3 -10 -1 -10 4 0 6 5 11 10 11 6 0 10 -2 10 -4z m1835 -27 c11 -17 -1 -21
-15 -4 -8 9 -8 15 -2 15 6 0 14 -5 17 -11z m-1927 -26 c39 22 47 22 25 -2 -21
-22 -73 -39 -73 -23 0 6 -3 19 -6 29 -6 16 -5 15 9 -2 15 -19 17 -19 45 -2z
m1915 -1 c15 -16 15 -18 -1 -18 -10 0 -19 8 -19 18 -1 10 0 18 1 18 2 0 10 -8
19 -18z m-1996 -39 c-4 -3 -7 0 -7 7 0 7 3 10 7 7 3 -4 3 -10 0 -14z m913 7
c0 -5 -4 -10 -10 -10 -5 0 -10 5 -10 10 0 6 5 10 10 10 6 0 10 -4 10 -10z
m117 4 c-3 -3 -12 -4 -19 -1 -8 3 -5 6 6 6 11 1 17 -2 13 -5z m293 -4 c0 -5
-4 -10 -10 -10 -5 0 -10 5 -10 10 0 6 5 10 10 10 6 0 10 -4 10 -10z m-1297
-25 c-3 -8 -1 -15 4 -15 6 0 10 -14 11 -30 0 -17 -4 -28 -9 -25 -5 4 -9 17 -9
30 0 13 -5 25 -11 27 -5 2 -7 11 -4 21 4 9 11 15 16 12 4 -3 6 -12 2 -20z
m1230 -2 c13 -7 -3 -23 -23 -23 -11 0 -24 9 -30 20 -10 19 -9 20 17 14 15 -4
31 -9 36 -11z m-1268 -12 c-3 -6 -11 -11 -17 -11 -6 0 -6 6 2 15 14 17 26 13
15 -4z m1005 9 c0 -5 -4 -10 -10 -10 -5 0 -10 5 -10 10 0 6 5 10 10 10 6 0 10
-4 10 -10z m47 -6 c-3 -3 -12 -4 -19 -1 -8 3 -5 6 6 6 11 1 17 -2 13 -5z m973
-20 c0 -8 -4 -14 -10 -14 -5 0 -10 9 -10 21 0 11 5 17 10 14 6 -3 10 -13 10
-21z m-943 -1 c-4 -3 -10 -3 -14 0 -3 4 0 7 7 7 7 0 10 -3 7 -7z m-1073 -11
c-5 -4 -15 -23 -21 -42 l-10 -35 -8 27 c-10 38 0 58 27 58 13 0 18 -4 12 -8z
m942 -4 c4 -7 4 -10 -1 -6 -4 4 -19 -2 -33 -12 -13 -11 -29 -20 -35 -20 -6 0
-2 7 9 15 10 8 15 15 9 16 -5 0 1 5 15 9 14 4 26 8 27 9 1 1 5 -5 9 -11z m152
-19 c36 -16 104 -46 151 -65 47 -19 100 -41 116 -49 17 -8 75 -33 130 -55 187
-77 275 -115 275 -121 0 -3 -18 -12 -41 -19 -22 -8 -44 -21 -50 -31 -13 -25
-11 -143 3 -157 8 -8 8 -18 2 -34 -6 -14 -7 -39 -2 -63 5 -22 11 -59 14 -82 6
-41 6 -42 -30 -48 -20 -4 -48 -4 -62 -1 -25 7 -26 10 -21 49 3 23 8 67 12 97
6 52 5 54 -9 30 -20 -33 -20 -17 0 22 9 18 19 63 21 101 5 64 4 68 -14 58 -10
-6 -49 -24 -88 -40 -38 -17 -63 -31 -54 -31 9 0 20 -10 23 -22 7 -22 8 -22 15
-4 5 13 10 16 14 9 4 -7 3 -14 -3 -18 -6 -4 -7 -12 -4 -18 5 -8 3 -8 -7 1 -7
6 -17 12 -21 12 -4 0 -8 -60 -8 -133 l0 -133 -30 -29 c-19 -18 -26 -31 -19
-36 8 -5 8 -8 0 -13 -6 -4 -11 -2 -11 3 0 22 -18 10 -71 -44 -29 -30 -59 -55
-67 -55 -7 0 -11 -4 -7 -9 3 -5 0 -13 -6 -17 -8 -5 -9 -3 -4 6 6 10 4 12 -8 7
-21 -8 -21 -3 -1 17 23 24 0 80 -57 138 -63 63 -134 82 -219 58 -44 -12 -113
-68 -106 -86 3 -8 0 -13 -6 -11 -6 1 -21 -20 -32 -48 -11 -27 -21 -52 -23 -54
-5 -7 -48 27 -123 98 -41 39 -78 71 -82 71 -13 0 -9 -12 7 -24 11 -8 12 -15 4
-26 -9 -13 -10 -12 -5 3 3 9 1 17 -5 17 -5 0 -14 10 -19 23 l-9 22 0 -23 c-1
-27 -16 -22 -24 8 -3 11 -1 17 4 14 5 -3 13 5 18 18 l10 23 0 -22 c1 -13 6
-23 11 -23 6 0 10 47 10 120 0 112 -1 120 -19 120 -11 0 -21 -7 -23 -16 -2
-13 -6 -12 -23 7 -17 19 -18 22 -2 16 11 -4 17 -1 17 8 0 9 9 15 23 15 18 0
19 -2 7 -10 -11 -8 -8 -10 15 -9 27 2 117 -30 232 -82 27 -12 52 -17 72 -13
20 4 31 2 31 -4 0 -7 -8 -9 -17 -5 -46 16 8 -17 65 -40 l62 -25 75 33 c41 18
71 36 67 40 -4 5 -1 5 6 0 8 -4 31 1 54 11 34 15 37 19 22 26 -14 6 -13 7 7 3
30 -5 123 27 112 40 -5 4 -3 5 4 1 15 -8 69 18 76 38 14 35 -42 20 -228 -60
l-195 -84 -62 24 c-35 13 -88 35 -118 49 -67 30 -131 57 -137 57 -3 0 -2 -8 2
-17 5 -14 3 -15 -6 -6 -6 6 -18 9 -26 6 -12 -5 -14 -1 -9 14 5 16 -1 23 -36
38 -24 10 -71 31 -105 46 -35 15 -63 25 -63 21 0 -4 -4 -2 -8 3 -8 12 -160 75
-179 75 -7 0 -10 7 -6 15 3 9 7 14 10 11 5 -4 200 70 218 83 5 4 44 20 85 35
41 16 104 42 140 58 36 17 81 36 100 43 19 7 69 29 110 48 41 20 79 36 83 36
5 1 38 -13 75 -30z m-383 11 c-3 -5 -12 -10 -18 -10 -7 0 -6 4 3 10 19 12 23
12 15 0z m82 3 c-4 -3 -10 -3 -14 0 -3 4 0 7 7 7 7 0 10 -3 7 -7z m399 -14 c0
-10 -6 -14 -18 -11 -10 2 -15 9 -11 15 4 6 0 8 -10 4 -10 -3 -17 -2 -17 3 0 5
13 8 28 7 18 -1 28 -8 28 -18z m50 -16 c-6 -6 -36 9 -36 18 0 5 9 4 20 -3 10
-7 18 -14 16 -15z m-459 10 c-4 -3 -10 -3 -14 0 -3 4 0 7 7 7 7 0 10 -3 7 -7z
m1280 -10 c-4 -3 -7 0 -7 7 0 7 3 10 7 7 3 -4 3 -10 0 -14z m-1207 -3 c0 -5
-2 -10 -4 -10 -3 0 -8 5 -11 10 -3 6 -1 10 4 10 6 0 11 -4 11 -10z m1237 -7
c-4 -3 -7 0 -7 7 0 7 3 10 7 7 3 -4 3 -10 0 -14z m-1334 0 c-13 -2 -35 -2 -50
0 -16 2 -5 4 22 4 28 0 40 -2 28 -4z m-716 -18 c0 -8 -4 -15 -9 -15 -10 0 -11
14 -1 23 9 10 10 9 10 -8z m768 5 c-3 -5 -12 -10 -18 -10 -7 0 -6 4 3 10 19
12 23 12 15 0z m510 0 c3 -5 2 -10 -4 -10 -5 0 -13 5 -16 10 -3 6 -2 10 4 10
5 0 13 -4 16 -10z m782 -17 c-4 -3 -7 0 -7 7 0 7 3 10 7 7 3 -4 3 -10 0 -14z
m-2150 0 c-4 -3 -10 -3 -14 0 -3 4 0 7 7 7 7 0 10 -3 7 -7z m1330 0 c-4 -3
-10 -3 -14 0 -3 4 0 7 7 7 7 0 10 -3 7 -7z m803 -33 c0 -22 -4 -40 -9 -40 -6
0 -7 17 -5 38 4 28 3 33 -5 22 -6 -8 -11 -10 -11 -4 0 6 3 14 7 17 15 16 23 5
23 -33z m-2113 8 c-3 -8 -6 -5 -6 6 -1 11 2 17 5 13 3 -3 4 -12 1 -19z m478
12 c3 -5 -1 -10 -9 -10 -8 0 -18 5 -21 10 -3 6 1 10 9 10 8 0 18 -4 21 -10z
m155 0 c-20 -13 -33 -13 -25 0 3 6 14 10 23 10 15 0 15 -2 2 -10z m121 -8 c-7
-2 -18 1 -23 6 -8 8 -4 9 13 5 13 -4 18 -8 10 -11z m679 8 c0 -5 -4 -10 -10
-10 -5 0 -10 5 -10 10 0 6 5 10 10 10 6 0 10 -4 10 -10z m-743 -7 c-4 -3 -10
-3 -14 0 -3 4 0 7 7 7 7 0 10 -3 7 -7z m-117 -12 c0 -5 -10 -13 -22 -17 -13
-4 -26 -11 -29 -16 -3 -5 -9 -3 -12 6 -5 12 0 16 18 16 14 0 25 5 25 10 0 6 5
10 10 10 6 0 10 -4 10 -9z m87 2 c-4 -3 -10 -3 -14 0 -3 4 0 7 7 7 7 0 10 -3
7 -7z m63 -3 c0 -5 -2 -10 -4 -10 -3 0 -8 5 -11 10 -3 6 -1 10 4 10 6 0 11 -4
11 -10z m784 -5 c-4 -8 -12 -15 -20 -15 -20 0 -17 18 4 23 9 3 18 5 19 6 1 0
0 -6 -3 -14z m-1024 -10 c0 -10 -9 -15 -27 -14 -24 2 -25 2 -5 6 12 2 22 9 22
14 0 5 2 9 5 9 3 0 5 -7 5 -15z m-493 -17 c-3 -8 -6 -5 -6 6 -1 11 2 17 5 13
3 -3 4 -12 1 -19z m648 12 c3 -5 4 -10 1 -10 -3 0 -8 5 -11 10 -3 6 -4 10 -1
10 3 0 8 -4 11 -10z m895 6 c0 -3 -4 -8 -10 -11 -5 -3 -10 -1 -10 4 0 6 5 11
10 11 6 0 10 -2 10 -4z m-943 -23 c-4 -3 -7 0 -7 7 0 7 3 10 7 7 3 -4 3 -10 0
-14z m1003 2 c14 -8 21 -14 15 -14 -5 0 -21 6 -35 14 -14 8 -20 14 -15 14 6 0
21 -6 35 -14z m-1533 -12 c-4 -3 -7 0 -7 7 0 7 3 10 7 7 3 -4 3 -10 0 -14z
m1440 0 c-4 -3 -10 -3 -14 0 -3 4 0 7 7 7 7 0 10 -3 7 -7z m58 -11 c-3 -3 -11
0 -18 7 -9 10 -8 11 6 5 10 -3 15 -9 12 -12z m-987 -5 c-21 -20 -86 -37 -91
-23 -3 7 9 12 31 13 19 1 40 7 45 12 6 6 15 11 20 11 5 0 2 -6 -5 -13z m1087
3 c-3 -5 -14 -10 -23 -9 -14 0 -13 2 3 9 27 11 27 11 20 0z m-1688 -22 c-3 -8
-6 -5 -6 6 -1 11 2 17 5 13 3 -3 4 -12 1 -19z m1638 12 c3 -5 1 -10 -4 -10 -6
0 -11 5 -11 10 0 6 2 10 4 10 3 0 8 -4 11 -10z m-1158 -27 c-4 -3 -10 -3 -14
0 -3 4 0 7 7 7 7 0 10 -3 7 -7z m1170 0 c-4 -3 -10 -3 -14 0 -3 4 0 7 7 7 7 0
10 -3 7 -7z m-1650 -30 c-4 -3 -7 0 -7 7 0 7 3 10 7 7 3 -4 3 -10 0 -14z
m1778 7 c-3 -5 -14 -10 -23 -10 -15 0 -15 -2 -2 -11 11 -8 9 -9 -10 -4 -14 4
-29 12 -35 17 -6 6 -4 7 6 3 8 -3 26 -1 40 4 31 13 31 13 24 1z m-1395 -10
c-8 -5 -19 -10 -25 -10 -5 0 -3 5 5 10 8 5 20 10 25 10 6 0 3 -5 -5 -10z m70
0 c-8 -5 -22 -9 -30 -9 -10 0 -8 3 5 9 27 12 43 12 25 0z m-127 -15 c4 -8 2
-17 -3 -20 -6 -4 -10 -4 -10 -1 0 2 -3 11 -6 20 -3 9 -2 16 4 16 5 0 12 -7 15
-15z m1504 8 c-4 -3 -10 -3 -14 0 -3 4 0 7 7 7 7 0 10 -3 7 -7z m-1810 -35
c-3 -7 -5 -2 -5 12 0 14 2 19 5 13 2 -7 2 -19 0 -25z m353 12 c0 -5 -8 -10
-17 -10 -15 0 -16 2 -3 10 19 12 20 12 20 0z m1480 0 c0 -5 -2 -10 -4 -10 -3
0 -8 5 -11 10 -3 6 -1 10 4 10 6 0 11 -4 11 -10z m-1560 -10 c0 -5 -4 -10 -10
-10 -5 0 -10 5 -10 10 0 6 5 10 10 10 6 0 10 -4 10 -10z m50 -57 c15 -4 17 -9
10 -23 -6 -11 -5 -21 3 -30 9 -10 9 -11 0 -6 -9 5 -13 -2 -13 -22 0 -22 -6
-31 -22 -36 -38 -10 -58 -7 -58 9 0 10 11 15 33 16 l32 1 -33 14 c-29 13 -32
17 -21 30 7 9 21 13 31 11 12 -4 18 0 18 13 0 10 -9 20 -21 23 -18 5 -19 8 -8
28 l12 23 9 -23 c4 -13 17 -25 28 -28z m1514 32 c-7 -16 -24 -21 -24 -6 0 8 7
13 27 20 1 1 0 -6 -3 -14z m-9 -45 c25 -11 -1 -11 -35 0 -20 6 -21 8 -5 8 11
0 29 -3 40 -8z m-1401 -23 c11 -8 16 -20 13 -28 -4 -11 -6 -11 -6 2 -1 9 -15
21 -33 27 -23 7 -27 10 -12 11 11 1 28 -5 38 -12z m1320 5 c3 -5 -1 -9 -9 -9
-8 0 -15 4 -15 9 0 4 4 8 9 8 6 0 12 -4 15 -8z m-1374 -12 c8 -5 11 -10 5 -10
-5 0 -17 5 -25 10 -8 5 -10 10 -5 10 6 0 17 -5 25 -10z m1425 -10 c16 -6 14
-8 -12 -7 -18 0 -30 4 -27 9 6 10 12 9 39 -2z m-1388 -7 c-4 -3 -10 -3 -14 0
-3 4 0 7 7 7 7 0 10 -3 7 -7z m103 -17 c0 -2 -7 -7 -16 -10 -8 -3 -12 -2 -9 4
6 10 25 14 25 6z m1100 -14 c0 -4 -9 -8 -20 -9 -11 -1 -18 2 -15 8 7 11 35 12
35 1z m-1143 -19 c-4 -3 -7 0 -7 7 0 7 3 10 7 7 3 -4 3 -10 0 -14z m116 -6 c4
3 7 0 7 -8 0 -9 -12 -16 -31 -17 -19 -2 -28 2 -24 8 3 5 -1 10 -9 10 -9 0 -16
-4 -16 -10 0 -5 -9 -10 -20 -10 -11 0 -20 5 -20 11 0 5 5 7 10 4 6 -3 15 -3
21 1 8 4 7 9 -2 15 -20 12 3 11 36 -1 24 -9 27 -8 21 7 -6 17 -5 17 7 1 8 -10
17 -15 20 -11z m967 9 c0 -3 -5 -8 -12 -12 -7 -4 -8 -3 -4 4 7 12 16 16 16 8z
m36 -13 c-15 -4 -16 -7 -5 -15 12 -8 12 -9 0 -6 -25 7 -24 28 1 27 19 -1 20
-2 4 -6z m31 -10 c-4 -3 -7 0 -7 7 0 7 3 10 7 7 3 -4 3 -10 0 -14z m-1557 -33
c0 -22 -4 -40 -10 -40 -5 0 -10 18 -10 40 0 22 5 40 10 40 6 0 10 -18 10 -40z
m376 26 c24 9 16 1 -13 -15 -21 -11 -23 -9 -23 11 0 16 3 19 8 10 5 -8 16 -10
28 -6z m211 -8 c-3 -8 -6 -5 -6 6 -1 11 2 17 5 13 3 -3 4 -12 1 -19z m823 -3
c0 -2 -6 -5 -13 -8 -8 -3 -14 1 -14 8 0 7 6 11 14 8 7 -3 13 -6 13 -8z m273 9
c-8 -3 -10 -18 -8 -37 l5 -32 -10 29 c-10 32 -6 46 13 45 9 0 9 -2 0 -5z
m-346 -31 c-4 -3 -10 -3 -14 0 -3 4 0 7 7 7 7 0 10 -3 7 -7z m-50 -30 c-4 -3
-7 0 -7 7 0 7 3 10 7 7 3 -4 3 -10 0 -14z m-750 -15 c-3 -8 -6 -5 -6 6 -1 11
2 17 5 13 3 -3 4 -12 1 -19z m780 15 c-4 -3 -10 -3 -14 0 -3 4 0 7 7 7 7 0 10
-3 7 -7z m206 -20 c-7 -3 -13 -11 -13 -19 0 -8 -5 -14 -10 -14 -7 0 -7 6 0 20
6 11 8 20 5 20 -4 0 -3 5 1 11 4 8 10 7 18 -1 8 -9 8 -14 -1 -17z m-1584 -25
l-2 -43 -6 35 c-7 33 -5 50 5 50 2 0 3 -19 3 -42z m826 30 c5 4 5 1 1 -6 -6
-10 -11 -10 -22 -1 -8 6 -14 14 -14 16 0 3 6 0 13 -6 8 -6 18 -7 22 -3z m902
-15 c-4 -3 -7 0 -7 7 0 7 3 10 7 7 3 -4 3 -10 0 -14z m-1750 -60 c-3 -10 -5
-2 -5 17 0 19 2 27 5 18 2 -10 2 -26 0 -35z m620 0 c-3 -10 -5 -2 -5 17 0 19
2 27 5 18 2 -10 2 -26 0 -35z m300 40 c-4 -3 -10 -3 -14 0 -3 4 0 7 7 7 7 0
10 -3 7 -7z m860 -10 c-4 -3 -7 0 -7 7 0 7 3 10 7 7 3 -4 3 -10 0 -14z m-572
-13 c-3 -5 -11 -10 -16 -10 -6 0 -7 5 -4 10 3 6 11 10 16 10 6 0 7 -4 4 -10z
m-110 -30 c8 7 20 10 27 7 8 -3 1 -9 -15 -16 -38 -15 -54 -14 -61 4 -5 13 -2
14 15 5 15 -8 24 -8 34 0z m-1078 -37 c-3 -10 -5 -4 -5 12 0 17 2 24 5 18 2
-7 2 -21 0 -30z m1520 0 c-4 -3 -7 0 -7 7 0 7 3 10 7 7 3 -4 3 -10 0 -14z
m230 -35 c-3 -7 -5 -2 -5 12 0 14 2 19 5 13 2 -7 2 -19 0 -25z m-1773 -12 c-3
-15 -8 -25 -11 -23 -2 3 -1 17 3 31 3 15 8 25 11 23 2 -3 1 -17 -3 -31z m1543
17 c-4 -3 -7 0 -7 7 0 7 3 10 7 7 3 -4 3 -10 0 -14z m16 -44 c5 -4 1 -11 -10
-17 -18 -10 -19 -8 -15 21 3 18 7 25 10 17 3 -8 9 -18 15 -21z m-1080 7 c23
-18 21 -26 -7 -26 -15 0 -26 7 -29 20 -6 23 10 26 36 6z m627 0 c0 -9 -40 -13
-46 -5 -3 5 6 9 20 9 14 0 26 -2 26 -4z m550 -16 c0 -13 -12 -19 -26 -13 -8 3
-12 8 -9 12 5 10 35 10 35 1z m-644 -14 c-16 -8 -24 -15 -17 -17 7 -3 9 -12 6
-22 -9 -21 -25 -12 -25 14 0 11 -5 17 -10 14 -6 -4 -7 -11 -4 -17 4 -7 2 -8
-5 -4 -18 11 4 34 37 39 46 7 48 6 18 -7z m737 -16 c3 -11 1 -20 -4 -20 -5 0
-9 4 -9 9 0 5 -3 17 -7 27 -4 11 -3 15 4 11 6 -4 13 -16 16 -27z m-1217 6 c20
-20 18 -26 -8 -26 -28 0 -55 16 -45 26 3 4 13 1 22 -6 13 -11 14 -10 9 4 -8
20 3 21 22 2z m531 -3 c-4 -3 -7 0 -7 7 0 7 3 10 7 7 3 -4 3 -10 0 -14z m140
-9 c2 -13 1 -15 -4 -4 -3 8 -11 19 -17 23 -7 6 -6 7 4 4 8 -2 16 -12 17 -23z
m508 17 c3 -5 0 -13 -6 -17 -7 -4 -9 -3 -5 4 3 5 0 13 -6 15 -9 4 -10 6 -1 6
6 1 14 -3 18 -8z m-1326 -33 c-1 -31 -1 -31 -8 -8 -5 14 -6 28 -4 33 9 15 13
6 12 -25z m33 10 c-7 -7 -12 -8 -12 -2 0 14 12 26 19 19 2 -3 -1 -11 -7 -17z
m765 5 c-4 -3 -10 -3 -14 0 -3 4 0 7 7 7 7 0 10 -3 7 -7z m360 -10 c-4 -3 -7
0 -7 7 0 7 3 10 7 7 3 -4 3 -10 0 -14z m80 10 c-4 -3 -10 -3 -14 0 -3 4 0 7 7
7 7 0 10 -3 7 -7z m161 -18 c-3 -3 -9 2 -12 12 -6 14 -5 15 5 6 7 -7 10 -15 7
-18z m-1761 -2 c-4 -3 -7 0 -7 7 0 7 3 10 7 7 3 -4 3 -10 0 -14z m543 7 c-10
-6 -11 -10 -2 -10 6 0 12 -4 12 -9 0 -4 -11 -6 -25 -3 -24 4 -24 5 -8 18 10 7
23 13 28 14 6 0 3 -5 -5 -10z m590 0 c0 -5 -2 -10 -4 -10 -3 0 -8 5 -11 10 -3
6 -1 10 4 10 6 0 11 -4 11 -10z m425 1 c3 -5 2 -12 -3 -15 -5 -3 -9 1 -9 9 0
17 3 19 12 6z m-1047 -35 c37 -19 80 -44 96 -55 17 -11 34 -17 39 -14 6 3 7 1
4 -4 -4 -6 4 -18 18 -27 44 -29 155 -138 199 -195 53 -70 130 -197 166 -272
l27 -57 13 36 c7 19 25 56 41 81 16 25 27 52 24 59 -2 7 -1 11 3 8 4 -2 21 16
37 42 16 26 38 56 47 67 19 20 19 42 0 38 -5 -1 -8 7 -4 19 l5 22 8 -23 c8
-20 13 -17 81 52 40 41 103 98 139 126 76 58 223 135 244 127 8 -3 17 -21 21
-41 3 -19 10 -38 15 -41 6 -3 -25 -23 -68 -44 -102 -50 -155 -84 -147 -93 4
-4 1 -7 -7 -7 -8 0 -30 -14 -49 -30 l-35 -30 48 26 c26 14 47 23 47 20 0 -4
10 -2 21 5 25 13 151 44 224 54 28 4 53 12 58 18 13 22 27 -16 25 -67 l-3 -48
-51 -4 c-76 -6 -218 -50 -311 -96 -82 -41 -243 -160 -251 -187 -3 -8 8 -2 24
13 77 75 217 150 354 190 95 28 315 55 330 40 6 -6 4 -25 -5 -49 -8 -22 -14
-47 -15 -56 0 -13 -16 -18 -77 -23 -129 -11 -154 -16 -258 -48 -159 -48 -310
-132 -299 -166 5 -14 4 -14 -4 -3 -12 17 -39 -1 -137 -93 -71 -66 -106 -75
-146 -35 -11 11 -25 17 -31 13 -7 -5 -8 -3 -4 5 17 27 -228 210 -304 228 -14
3 -32 12 -40 19 -16 14 -152 58 -210 69 -19 3 -77 11 -127 17 l-93 11 -10 36
c-5 20 -10 48 -10 64 0 25 3 27 43 27 68 0 245 -36 337 -68 89 -31 187 -83
249 -131 20 -15 43 -32 51 -36 36 -21 -17 29 -85 80 -100 75 -184 118 -202
104 -10 -9 -12 -9 -8 2 4 11 -13 21 -61 36 -37 12 -71 20 -76 17 -4 -3 -8 -1
-8 5 0 5 -29 12 -64 16 -34 4 -68 10 -73 14 -11 6 -22 121 -12 121 3 0 9 -4
15 -9 5 -4 45 -14 89 -21 44 -7 95 -19 114 -26 18 -8 41 -14 50 -14 9 0 46
-15 84 -33 37 -18 67 -32 67 -30 0 12 -119 87 -135 85 -15 -2 -17 -1 -6 7 15
9 15 9 -104 70 -53 27 -57 39 -34 98 11 31 27 29 107 -11z m657 24 c3 -5 2
-10 -4 -10 -5 0 -13 5 -16 10 -3 6 -2 10 4 10 5 0 13 -4 16 -10z m-508 -7 c-4
-3 -10 -3 -14 0 -3 4 0 7 7 7 7 0 10 -3 7 -7z m478 -13 c84 -52 85 -190 3
-240 -43 -26 -122 -27 -161 -1 -47 31 -62 60 -62 128 0 34 -3 65 -7 69 -5 4
-8 12 -8 18 0 6 5 3 11 -7 10 -16 14 -15 50 18 34 30 46 35 90 35 34 0 63 -7
84 -20z m72 13 c-4 -3 -10 -3 -14 0 -3 4 0 7 7 7 7 0 10 -3 7 -7z m-830 -20
c-4 -3 -7 0 -7 7 0 7 3 10 7 7 3 -4 3 -10 0 -14z m845 -34 c-13 -13 -22 -17
-27 -10 -3 6 -2 11 4 11 6 0 14 12 17 26 6 22 8 24 16 10 6 -11 3 -22 -10 -37z
m358 47 c0 -2 -7 -9 -15 -16 -13 -11 -14 -10 -9 4 5 14 24 23 24 12z m-961
-43 c9 -7 11 -12 4 -13 -18 0 -44 30 -36 43 4 7 8 6 11 -3 3 -8 12 -20 21 -27z
m71 18 c0 -10 -9 -21 -20 -24 -11 -3 -20 -1 -20 4 0 5 8 9 18 10 10 0 12 3 4
6 -6 2 -10 9 -6 14 9 16 24 10 24 -10z m505 9 c3 -5 4 -10 1 -10 -3 0 -8 5
-11 10 -3 6 -4 10 -1 10 3 0 8 -4 11 -10z m282 3 c-4 -3 -10 -3 -14 0 -3 4 0
7 7 7 7 0 10 -3 7 -7z m53 3 c0 -3 -5 -8 -12 -12 -7 -4 -8 -3 -4 4 7 12 16 16
16 8z m-1203 -23 c-4 -3 -7 0 -7 7 0 7 3 10 7 7 3 -4 3 -10 0 -14z m40 -10
c-4 -3 -7 0 -7 7 0 7 3 10 7 7 3 -4 3 -10 0 -14z m1120 10 c-4 -3 -10 -3 -14
0 -3 4 0 7 7 7 7 0 10 -3 7 -7z m-1120 -53 c9 -10 21 -16 28 -14 6 3 12 -1 12
-9 0 -9 -8 -12 -24 -9 -12 2 -23 10 -23 18 0 7 -10 20 -22 29 -20 13 -21 17
-8 25 11 7 16 5 18 -6 2 -9 11 -24 19 -34z m1058 40 c-3 -5 -11 -10 -16 -10
-6 0 -7 5 -4 10 3 6 11 10 16 10 6 0 7 -4 4 -10z m72 -7 c-4 -3 -10 -3 -14 0
-3 4 0 7 7 7 7 0 10 -3 7 -7z m-1190 -20 c-4 -3 -10 -3 -14 0 -3 4 0 7 7 7 7
0 10 -3 7 -7z m457 -9 c17 -16 13 -34 -7 -34 -7 0 -6 4 3 10 13 9 13 10 0 11
-8 1 -18 1 -22 0 -10 -1 -10 13 -1 22 9 9 9 9 27 -9z m106 12 c0 -3 -5 -8 -12
-12 -7 -4 -8 -3 -4 4 7 12 16 16 16 8z m530 -13 c0 -14 -2 -15 -9 -4 -7 11
-14 10 -37 -4 l-29 -17 24 21 c28 26 51 27 51 4z m-1135 -3 c-3 -5 -10 -10
-16 -10 -5 0 -9 5 -9 10 0 6 7 10 16 10 8 0 12 -4 9 -10z m1180 0 c-3 -5 -12
-10 -18 -10 -7 0 -6 4 3 10 19 12 23 12 15 0z m-1105 -15 c0 -7 8 -19 18 -24
9 -6 12 -11 5 -11 -14 0 -43 27 -43 41 0 5 5 9 10 9 6 0 10 -7 10 -15z m537
-2 c-4 -3 -7 0 -7 7 0 7 3 10 7 7 3 -4 3 -10 0 -14z m-13 -9 c3 -8 2 -12 -4
-9 -6 3 -10 10 -10 16 0 14 7 11 14 -7z m876 12 c0 -11 -19 -15 -25 -6 -3 5 1
10 9 10 9 0 16 -2 16 -4z m-500 -10 c0 -3 -5 -8 -12 -12 -7 -4 -8 -3 -4 4 7
12 16 16 16 8z m-1017 -13 c-13 -2 -33 -2 -45 0 -13 2 -3 4 22 4 25 0 35 -2
23 -4z m257 -21 c-6 -2 -8 -7 -5 -11 2 -5 -8 -6 -23 -3 l-27 6 25 7 c14 4 19
7 13 8 -7 1 -13 6 -13 11 0 6 8 5 20 -2 11 -7 16 -14 10 -16z m245 18 c3 -5 4
-10 1 -10 -3 0 -8 5 -11 10 -3 6 -4 10 -1 10 3 0 8 -4 11 -10z m82 3 c-4 -3
-10 -3 -14 0 -3 4 0 7 7 7 7 0 10 -3 7 -7z m583 -8 c-7 -9 -15 -13 -17 -11 -7
7 7 26 19 26 6 0 6 -6 -2 -15z m247 -12 c-4 -3 -10 -3 -14 0 -3 4 0 7 7 7 7 0
10 -3 7 -7z m243 -3 c0 -5 -7 -7 -15 -4 -8 4 -15 8 -15 10 0 2 7 4 15 4 8 0
15 -4 15 -10z m-1053 -22 c-3 -8 -6 -5 -6 6 -1 11 2 17 5 13 3 -3 4 -12 1 -19z
m29 -5 c-10 -10 -19 5 -10 18 6 11 8 11 12 0 2 -7 1 -15 -2 -18z m466 13 c6 4
8 3 4 -4 -9 -15 -44 -11 -51 5 -3 11 0 11 15 3 11 -6 26 -8 32 -4z m353 7
c-11 -3 -26 -10 -32 -15 -9 -7 -13 -7 -13 0 0 13 18 21 45 20 l20 0 -20 -5z
m-910 -13 c3 -5 4 -10 1 -10 -3 0 -8 5 -11 10 -3 6 -4 10 -1 10 3 0 8 -4 11
-10z m32 -17 c-4 -3 -7 0 -7 7 0 7 3 10 7 7 3 -4 3 -10 0 -14z m113 13 c0 -3
-4 -8 -10 -11 -5 -3 -10 -1 -10 4 0 6 5 11 10 11 6 0 10 -2 10 -4z m697 -3
c-4 -3 -10 -3 -14 0 -3 4 0 7 7 7 7 0 10 -3 7 -7z m-1040 -20 c-4 -3 -10 -3
-14 0 -3 4 0 7 7 7 7 0 10 -3 7 -7z m763 4 c0 -2 -9 -12 -19 -21 -14 -13 -21
-14 -27 -5 -4 7 -3 10 3 6 6 -4 16 0 23 8 12 14 20 19 20 12z m227 -4 c-4 -3
-10 -3 -14 0 -3 4 0 7 7 7 7 0 10 -3 7 -7z m-690 -25 c22 -20 34 -13 13 8 -6
6 -2 10 13 11 12 0 17 -1 11 -3 -6 -3 -10 -21 -8 -41 l3 -35 -17 23 c-9 13
-25 32 -35 42 -11 9 -16 17 -12 17 5 0 19 -10 32 -22z m337 -14 c9 -24 7 -27
-9 -10 -17 17 -19 26 -6 26 5 0 12 -7 15 -16z m-274 -4 c0 -5 -5 -10 -11 -10
-5 0 -7 5 -4 10 3 6 8 10 11 10 2 0 4 -4 4 -10z m990 -25 c0 -5 -5 -3 -10 5
-5 8 -10 20 -10 25 0 6 5 3 10 -5 5 -8 10 -19 10 -25z m-1706 11 c-3 -8 -12
-12 -20 -9 -21 8 -17 23 6 23 13 0 18 -5 14 -14z m636 4 c0 -5 -2 -10 -4 -10
-3 0 -8 5 -11 10 -3 6 -1 10 4 10 6 0 11 -4 11 -10z m-585 -20 c-3 -5 -12 -7
-20 -3 -21 7 -19 13 6 13 11 0 18 -4 14 -10z m705 6 c0 -3 -5 -8 -12 -12 -7
-4 -8 -3 -4 4 7 12 16 16 16 8z m-82 -42 c-4 -3 -12 5 -18 18 -12 22 -12 22 6
6 10 -10 15 -20 12 -24z m-911 -1 c-4 -3 -7 0 -7 7 0 7 3 10 7 7 3 -4 3 -10 0
-14z m1063 7 c0 -5 -2 -10 -4 -10 -3 0 -8 5 -11 10 -3 6 -1 10 4 10 6 0 11 -4
11 -10z m68 3 c-10 -2 -18 -9 -18 -14 0 -5 -5 -9 -11 -9 -8 0 -8 5 1 15 7 8
20 14 29 14 13 -1 13 -2 -1 -6z m-651 -10 c-4 -3 -10 -3 -14 0 -3 4 0 7 7 7 7
0 10 -3 7 -7z m463 3 c0 -3 -5 -8 -12 -12 -7 -4 -8 -3 -4 4 7 12 16 16 16 8z
m783 -3 c-7 -2 -19 -2 -25 0 -7 3 -2 5 12 5 14 0 19 -2 13 -5z m-1216 -10 c-4
-3 -10 -3 -14 0 -3 4 0 7 7 7 7 0 10 -3 7 -7z m453 -7 c0 -3 -4 -8 -10 -11 -5
-3 -10 -1 -10 4 0 6 5 11 10 11 6 0 10 -2 10 -4z m-943 -23 c-4 -3 -7 0 -7 7
0 7 3 10 7 7 3 -4 3 -10 0 -14z m540 10 c-4 -3 -10 -3 -14 0 -3 4 0 7 7 7 7 0
10 -3 7 -7z m1060 0 c-4 -3 -10 -3 -14 0 -3 4 0 7 7 7 7 0 10 -3 7 -7z m-1620
-30 c-4 -3 -7 0 -7 7 0 7 3 10 7 7 3 -4 3 -10 0 -14z m1173 7 c0 -5 -7 -10
-15 -10 -8 0 -15 5 -15 10 0 6 7 10 15 10 8 0 15 -4 15 -10z m-1010 -8 c0 -5
-7 -17 -16 -28 -8 -10 -13 -14 -10 -7 4 6 1 15 -5 19 -8 4 -7 9 2 15 18 11 29
11 29 1z m877 1 c-4 -3 -10 -3 -14 0 -3 4 0 7 7 7 7 0 10 -3 7 -7z m30 -15
c-3 -8 -6 -5 -6 6 -1 11 2 17 5 13 3 -3 4 -12 1 -19z m-1050 -50 c-2 -13 -4
-3 -4 22 0 25 2 35 4 23 2 -13 2 -33 0 -45z m963 58 c0 -3 -5 -8 -12 -12 -7
-4 -8 -3 -4 4 7 12 16 16 16 8z m207 -13 c-4 -3 -7 0 -7 7 0 7 3 10 7 7 3 -4
3 -10 0 -14z m-18 -32 c-2 -6 -10 2 -17 17 -11 25 -11 25 4 10 9 -9 15 -21 13
-27z m-969 -16 c0 -8 -2 -15 -4 -15 -2 0 -6 7 -10 15 -3 8 -1 15 4 15 6 0 10
-7 10 -15z m857 -27 c-4 -12 -1 -28 5 -35 8 -11 7 -12 -6 -7 -16 6 -22 44 -9
57 12 13 15 7 10 -15z m-754 5 c-7 -2 -21 -2 -30 0 -10 3 -4 5 12 5 17 0 24
-2 18 -5z m834 -10 c-4 -3 -7 0 -7 7 0 7 3 10 7 7 3 -4 3 -10 0 -14z m-662 -4
c16 -7 13 -8 -12 -5 -21 4 -38 0 -47 -9 -8 -8 -23 -15 -33 -15 -11 0 -24 -5
-30 -11 -7 -7 -12 -6 -17 6 -3 9 -2 13 4 10 5 -3 24 4 42 15 36 21 61 24 93 9z
m1302 5 c-3 -3 -12 -4 -19 -1 -8 3 -5 6 6 6 11 1 17 -2 13 -5z m-60 -11 c-4
-3 -10 -3 -14 0 -3 4 0 7 7 7 7 0 10 -3 7 -7z m-1521 -22 c-13 -15 -14 -20 -4
-24 7 -3 -2 -6 -20 -6 -28 -1 -31 1 -20 12 13 13 49 36 57 37 2 0 -4 -9 -13
-19z m321 12 c-4 -3 -10 -3 -14 0 -3 4 0 7 7 7 7 0 10 -3 7 -7z m1340 1 c-3
-3 -12 -4 -19 -1 -8 3 -5 6 6 6 11 1 17 -2 13 -5z m-750 -31 c-4 -3 -7 0 -7 7
0 7 3 10 7 7 3 -4 3 -10 0 -14z m500 10 c-4 -3 -10 -3 -14 0 -3 4 0 7 7 7 7 0
10 -3 7 -7z m58 -3 c-27 -12 -43 -12 -25 0 8 5 22 9 30 9 10 0 8 -3 -5 -9z
m-611 -16 c9 -24 2 -26 -12 -4 -7 11 -8 20 -3 20 5 0 12 -7 15 -16z m-454 -4
c0 -5 -2 -10 -4 -10 -3 0 -8 5 -11 10 -3 6 -1 10 4 10 6 0 11 -4 11 -10z m80
-20 c0 -5 -7 -7 -15 -4 -8 4 -15 8 -15 10 0 2 7 4 15 4 8 0 15 -4 15 -10z
m-60 -20 c0 -5 -2 -10 -4 -10 -3 0 -8 5 -11 10 -3 6 -1 10 4 10 6 0 11 -4 11
-10z m460 6 c0 -3 -5 -8 -12 -12 -7 -4 -8 -3 -4 4 7 12 16 16 16 8z m455 -6
c3 -6 -1 -7 -9 -4 -18 7 -21 14 -7 14 6 0 13 -4 16 -10z m-878 -7 c-4 -3 -10
-3 -14 0 -3 4 0 7 7 7 7 0 10 -3 7 -7z m105 -10 c8 -9 8 -13 1 -13 -6 0 -14 6
-16 13 -4 9 -7 9 -14 0 -9 -12 -56 -7 -49 6 7 11 65 6 78 -6z m715 11 c-3 -3
-12 -4 -19 -1 -8 3 -5 6 6 6 11 1 17 -2 13 -5z m-880 -31 c-4 -3 -7 0 -7 7 0
7 3 10 7 7 3 -4 3 -10 0 -14z m-557 -18 c0 -8 -4 -15 -10 -15 -5 0 -10 7 -10
15 0 8 5 15 10 15 6 0 10 -7 10 -15z m736 -11 c-4 -9 -9 -15 -11 -12 -3 3 -3
13 1 22 4 9 9 15 11 12 3 -3 3 -13 -1 -22z m579 6 c-3 -5 -14 -10 -23 -9 -14
0 -13 2 3 9 27 11 27 11 20 0z m-1344 -25 c5 4 9 2 9 -4 0 -5 -4 -12 -9 -15
-9 -6 -22 17 -20 37 1 7 3 4 6 -6 2 -9 9 -15 14 -12z m809 10 c0 -8 -4 -15 -8
-15 -5 0 -9 7 -9 15 0 8 4 15 9 15 4 0 8 -7 8 -15z m1307 -12 c-4 -3 -7 0 -7
7 0 7 3 10 7 7 3 -4 3 -10 0 -14z m-1272 -3 c-3 -5 -11 -10 -16 -10 -6 0 -7 5
-4 10 3 6 11 10 16 10 6 0 7 -4 4 -10z m525 -4 c0 -3 -4 -8 -10 -11 -5 -3 -10
-1 -10 4 0 6 5 11 10 11 6 0 10 -2 10 -4z m757 -23 c-4 -3 -7 0 -7 7 0 7 3 10
7 7 3 -4 3 -10 0 -14z m-2120 -25 c-3 -8 -6 -5 -6 6 -1 11 2 17 5 13 3 -3 4
-12 1 -19z m1243 -8 c0 -5 -2 -10 -4 -10 -3 0 -8 5 -11 10 -3 6 -1 10 4 10 6
0 11 -4 11 -10z m-315 -10 c3 -6 -1 -7 -9 -4 -18 7 -21 14 -7 14 6 0 13 -4 16
-10z m1176 -23 c-10 -9 -11 -8 -5 6 3 10 9 15 12 12 3 -3 0 -11 -7 -18z
m-2056 -16 c3 -6 -3 -9 -14 -8 -11 0 -17 5 -15 9 7 11 22 10 29 -1z m32 -48
c-4 -3 -7 0 -7 7 0 7 3 10 7 7 3 -4 3 -10 0 -14z m971 -10 c-10 -2 -26 -2 -35
0 -10 3 -2 5 17 5 19 0 27 -2 18 -5z m989 -20 c-4 -3 -7 0 -7 7 0 7 3 10 7 7
3 -4 3 -10 0 -14z m-1932 -13 c-3 -5 -12 -10 -18 -10 -7 0 -6 4 3 10 19 12 23
12 15 0z m22 -7 c-4 -3 -7 0 -7 7 0 7 3 10 7 7 3 -4 3 -10 0 -14z m3 -17 c0
-3 -5 -8 -12 -12 -7 -4 -8 -3 -4 4 7 12 16 16 16 8z m16 -25 c-3 -5 1 -12 10
-15 9 -4 14 -9 11 -13 -8 -7 -37 15 -37 28 0 5 5 9 11 9 5 0 8 -4 5 -9z m91
-8 c-4 -3 -7 0 -7 7 0 7 3 10 7 7 3 -4 3 -10 0 -14z m1723 -7 c0 -2 -7 -7 -16
-10 -8 -3 -12 -2 -9 4 6 10 25 14 25 6z m-1755 -16 c3 -6 -1 -7 -9 -4 -18 7
-21 14 -7 14 6 0 13 -4 16 -10z m30 0 c3 -5 4 -10 1 -10 -3 0 -8 5 -11 10 -3
6 -4 10 -1 10 3 0 8 -4 11 -10z m1642 3 c-4 -3 -10 -3 -14 0 -3 4 0 7 7 7 7 0
10 -3 7 -7z m38 -23 c-3 -5 -11 -10 -16 -10 -6 0 -7 5 -4 10 3 6 11 10 16 10
6 0 7 -4 4 -10z m-1675 -20 c6 -11 8 -20 6 -20 -3 0 -10 9 -16 20 -6 11 -8 20
-6 20 3 0 10 -9 16 -20z m87 -47 c-4 -3 -10 -3 -14 0 -3 4 0 7 7 7 7 0 10 -3
7 -7z m40 -10 c-4 -3 -10 -3 -14 0 -3 4 0 7 7 7 7 0 10 -3 7 -7z m1400 1 c-3
-3 -12 -4 -19 -1 -8 3 -5 6 6 6 11 1 17 -2 13 -5z"/>
<path d="M794 1408 c-4 -7 -3 -8 4 -4 7 4 12 9 12 12 0 8 -9 4 -16 -8z"/>
<path d="M961 523 c7 -12 15 -20 18 -17 3 2 -3 12 -13 22 -17 16 -18 16 -5 -5z"/>
</g>
</svg>
